<?xml version="1.0" encoding="UTF-8"?>
<svg id="Layer_1" xmlns="http://www.w3.org/2000/svg" xmlns:xlink="http://www.w3.org/1999/xlink" version="1.1" viewBox="0 0 64 64">
  <!-- Generator: Adobe Illustrator 29.6.0, SVG Export Plug-In . SVG Version: 2.1.1 Build 207)  -->
  <defs>
    <style>
      .st0 {
        fill: url(#linear-gradient2);
      }

      .st1 {
        fill: url(#linear-gradient1);
      }

      .st2 {
        fill: #231f20;
      }

      .st3 {
        fill: url(#linear-gradient);
      }

      .st4 {
        fill: #fff;
      }
    </style>
    <linearGradient id="linear-gradient" x1="0" y1="28.08" x2="55.31" y2="28.08" gradientTransform="translate(0 65.46) scale(1 -1)" gradientUnits="userSpaceOnUse">
      <stop offset=".22" stop-color="#49ba7f"/>
      <stop offset=".37" stop-color="#4aac8c"/>
      <stop offset=".91" stop-color="#507bbd"/>
    </linearGradient>
    <linearGradient id="linear-gradient1" x1="44.22" y1="39.78" x2="11.4" y2="38.79" gradientTransform="translate(0 65.46) scale(1 -1)" gradientUnits="userSpaceOnUse">
      <stop offset=".43" stop-color="#49ba7f"/>
      <stop offset="1" stop-color="#507bbd"/>
    </linearGradient>
    <linearGradient id="linear-gradient2" x1="28.13" y1="35.84" x2="64" y2="35.84" gradientTransform="translate(0 65.46) scale(1 -1)" gradientUnits="userSpaceOnUse">
      <stop offset="0" stop-color="#48b97f"/>
      <stop offset="0" stop-color="#507abc"/>
    </linearGradient>
  </defs>
  <path class="st3" d="M46.37,13.31l-2.52,20.65,11.46,27.51L0,34.6,46.37,13.31Z"/>
  <path class="st1" d="M11.07,15.77L30.39,2.53l13.46,10.81-10.27,36.24L11.07,15.77Z"/>
  <path class="st0" d="M47.01,49.04l-18.88-18.75,6.96-20.08,28.91,5.37-16.99,33.46Z"/>
  <path class="st2" d="M25.57,51.41l-10.82-18.23,10.16-18.62,20.98-.4,10.82,18.23-10.16,18.62-20.98.4Z"/>
  <path class="st4" d="M21.85,31.06c-.28,0-.53-.05-.74-.16-.21-.11-.37-.26-.49-.45-.11-.2-.17-.43-.17-.69v-1.91c0-.26.06-.49.17-.68.12-.2.28-.35.49-.45.21-.11.45-.16.74-.16s.52.05.73.16c.21.1.37.25.49.45.12.19.17.42.17.68h-.76c0-.2-.06-.36-.17-.47-.11-.11-.26-.17-.47-.17s-.36.06-.47.17c-.11.11-.17.26-.17.47v1.91c0,.2.06.36.17.47.11.11.27.16.47.16s.36-.05.47-.16c.11-.11.17-.27.17-.47h.76c0,.26-.06.49-.17.69-.12.19-.28.34-.49.45-.21.1-.45.16-.73.16ZM25.4,31.06c-.42,0-.75-.12-1-.36-.24-.24-.37-.57-.37-1v-1.79c0-.42.12-.76.37-1,.25-.24.58-.36,1-.36s.75.12,1,.36c.25.24.37.57.37.99v1.79c0,.42-.12.76-.37,1-.24.24-.58.36-1,.36ZM25.4,30.4c.2,0,.36-.05.46-.16.1-.11.16-.27.16-.47v-1.91c0-.2-.05-.36-.16-.47-.1-.11-.26-.17-.46-.17s-.36.06-.46.17c-.1.11-.16.26-.16.47v1.91c0,.2.05.36.16.47.1.11.26.16.46.16ZM27.52,31v-4.38h.98l.49,1.88.5-1.88h.98v4.38h-.7v-1.84c0-.25,0-.51.02-.78.02-.27.03-.53.05-.79.02-.26.04-.49.07-.7l-.62,2.2h-.62l-.59-2.15c.04.28.07.61.1.99.03.38.05.79.05,1.22v1.84h-.7ZM31.25,31v-4.38h1.46c.29,0,.55.06.76.17.22.11.39.27.51.47.12.2.18.44.18.71s-.06.51-.18.71c-.12.2-.29.36-.51.47-.22.11-.47.17-.76.17h-.71v1.68h-.75ZM32.01,28.66h.71c.21,0,.38-.06.5-.19s.19-.29.19-.5-.06-.37-.19-.5-.29-.19-.5-.19h-.71v1.38ZM36.19,31.06c-.42,0-.75-.12-1-.36-.24-.24-.37-.57-.37-1v-1.79c0-.42.12-.76.37-1,.25-.24.58-.36,1-.36s.75.12,1,.36c.25.24.37.57.37.99v1.79c0,.42-.12.76-.37,1-.24.24-.58.36-1,.36ZM36.19,30.4c.2,0,.36-.05.46-.16.1-.11.16-.27.16-.47v-1.91c0-.2-.05-.36-.16-.47-.1-.11-.26-.17-.46-.17s-.36.06-.46.17c-.1.11-.16.26-.16.47v1.91c0,.2.05.36.16.47.1.11.26.16.46.16ZM39.81,31.06c-.3,0-.56-.05-.78-.16-.22-.1-.39-.25-.52-.44-.12-.2-.18-.43-.18-.7h.74c0,.2.07.35.2.47.14.12.32.17.54.17s.39-.06.51-.17c.13-.12.19-.27.19-.46,0-.14-.04-.27-.13-.38-.08-.11-.2-.19-.35-.23l-.59-.15c-.32-.08-.57-.23-.75-.45-.18-.22-.28-.48-.28-.79,0-.37.12-.67.37-.89.24-.22.57-.34.98-.34.28,0,.52.05.72.15.21.1.37.24.48.43.11.18.17.39.17.64h-.73c0-.17-.06-.3-.17-.41s-.27-.16-.46-.16-.34.05-.45.16c-.11.1-.16.23-.16.4,0,.14.04.25.11.34.08.09.19.15.33.19l.61.15c.32.08.58.24.76.48.19.24.28.53.28.86,0,.26-.06.49-.18.68-.12.19-.28.34-.5.45-.22.1-.47.16-.76.16ZM42.11,31v-4.38h2.63v.66h-1.89v1.14h1.68v.64h-1.68v1.28h1.89v.66h-2.63ZM20.54,39l-.46-4.38h.62l.28,3.06c0,.1.02.24.02.4.01.16.02.3.02.41.01-.11.02-.25.04-.41.02-.16.03-.3.04-.4l.38-3.06h.64l.36,3.06c.01.1.03.24.04.4.02.16.04.3.05.41,0-.11.01-.25.02-.41.01-.16.02-.3.03-.4l.27-3.06h.62l-.48,4.38h-.83l-.34-3.07c-.01-.12-.02-.26-.04-.42-.01-.17-.02-.31-.03-.41,0,.11-.02.25-.03.41-.01.16-.02.3-.04.42l-.37,3.07h-.83ZM24.13,39v-4.38h2.63v.66h-1.89v1.14h1.68v.64h-1.68v1.28h1.89v.66h-2.63ZM27.66,39v-4.38h1.34c.42,0,.75.1,1,.31.25.2.38.48.38.82,0,.24-.07.45-.21.62-.14.17-.31.28-.53.31h0c.16.03.31.09.44.19.13.1.23.22.3.38.07.15.11.32.11.5,0,.25-.06.47-.17.66-.12.19-.28.33-.49.44-.21.1-.46.15-.75.15h-1.41ZM28.39,36.43h.6c.2,0,.35-.05.47-.16.12-.11.17-.25.17-.44s-.06-.32-.17-.43c-.11-.11-.27-.16-.47-.16h-.6v1.18ZM28.39,38.38h.64c.22,0,.39-.06.52-.17.13-.12.19-.28.19-.49s-.06-.37-.19-.49c-.12-.13-.3-.19-.52-.19h-.64v1.34Z"/>
</svg>